# xmcd CD database file
#
# Track frame offsets:
#	150
#	5133
#	35013
#	59000
#	79232
#	105023
#	125081
#	143049
#	161355
#	182823
#	209770
#	232019
#
# Disc length: 3167 seconds
#
# Revision: 0
# Processed by: cddbd v1.5.1PL0 Copyright (c) Steve Scherf et al.
# Submitted via: CDex 1.51
#
DISCID=ab0c5d0c
DTITLE=YeLLOW Generation - CARPE DIEM
DYEAR=2002
DGENRE=JPop
TTITLE0=Open Your Eyes
TTITLE1=CARPE DIEM 〜今、この瞬間を生きる〜 (ALBUM VERSION)
TTITLE2=北風と太陽
TTITLE3=逃げ水 〜Like a road mirage〜
TTITLE4=LOST Generation
TTITLE5=Another "Myself"
TTITLE6=裸の王様
TTITLE7=2880316 〜地球最後の日の皆様へ〜
TTITLE8=Christmas Card
TTITLE9=鬼灯(ほおずき)
TTITLE10=I will never forget. 〜もうひとつの理由〜
TTITLE11=And Just Open Your Heart
EXTD=YEAR: 2002
EXTT0=
EXTT1=
EXTT2=
EXTT3=
EXTT4=
EXTT5=
EXTT6=
EXTT7=
EXTT8=
EXTT9=
EXTT10=
EXTT11=
PLAYORDER=
